<?xml version="1.0" standalone="no"?>
<!DOCTYPE svg PUBLIC "-//W3C//DTD SVG 20010904//EN"
 "http://www.w3.org/TR/2001/REC-SVG-20010904/DTD/svg10.dtd">
<svg version="1.0" xmlns="http://www.w3.org/2000/svg"
 width="513.000000pt" height="513.000000pt" viewBox="0 0 513.000000 513.000000"
 preserveAspectRatio="xMidYMid meet">
<metadata>
Created by potrace 1.16, written by Peter Selinger 2001-2019
</metadata>
<g transform="translate(0.000000,513.000000) scale(0.100000,-0.100000)"
fill="current" stroke="none">
<path d="M255 4220 c9 -14 4615 -14 4615 0 0 7 -777 10 -2311 10 -1537 0
-2308 -3 -2304 -10z"/>
<path d="M890 3749 c-395 -44 -646 -208 -737 -483 -25 -74 -27 -95 -27 -246
-1 -187 10 -242 71 -369 41 -86 148 -200 225 -241 46 -24 61 -40 37 -40 -22 0
-146 -89 -196 -141 -72 -75 -118 -153 -155 -261 -31 -89 -32 -100 -33 -248 0
-177 12 -235 75 -365 118 -244 371 -409 735 -477 100 -19 158 -21 663 -25
l552 -5 0 1456 0 1456 -567 -1 c-313 -1 -602 -5 -643 -10z m700 -1444 l0 -945
-242 0 c-340 0 -468 17 -596 75 -77 35 -124 76 -158 137 -27 49 -29 61 -29
153 1 125 24 184 97 250 89 80 127 89 401 93 l237 3 0 254 0 253 -232 4 c-264
5 -295 11 -371 78 -69 61 -91 122 -92 250 0 95 3 110 28 162 44 89 120 136
263 162 56 10 167 14 387 15 l307 1 0 -945z"/>
<path d="M2385 3747 c-3 -7 -4 -627 -3 -1377 3 -1291 4 -1367 21 -1405 52
-114 162 -159 302 -121 67 17 104 38 141 78 18 18 186 270 374 561 188 290
345 527 349 527 3 0 184 -261 401 -580 l395 -579 343 -1 c189 0 342 4 340 8
-1 5 -265 368 -586 808 -321 439 -583 803 -584 807 0 5 192 291 426 637 234
346 426 634 426 640 0 7 -95 10 -293 10 -267 0 -295 -2 -309 -17 -9 -10 -284
-443 -613 -963 -329 -520 -604 -952 -611 -960 -12 -12 -14 140 -14 963 l0 977
-250 0 c-193 0 -252 -3 -255 -13z"/>
</g>
</svg>
