<?xml version="1.0" standalone="no"?>
<!DOCTYPE svg PUBLIC "-//W3C//DTD SVG 20010904//EN"
 "http://www.w3.org/TR/2001/REC-SVG-20010904/DTD/svg10.dtd">
<svg version="1.0" xmlns="http://www.w3.org/2000/svg"
 width="120.000000pt" height="120.000000pt" viewBox="0 0 120.000000 120.000000"
 preserveAspectRatio="xMidYMid meet">

<g transform="translate(0.000000,120.000000) scale(0.100000,-0.100000)"
fill="current" stroke="none">
<path d="M150 940 c0 -7 160 -10 460 -10 300 0 460 3 460 10 0 7 -160 10 -460
10 -300 0 -460 -3 -460 -10z"/>
<path d="M231 838 c-74 -21 -111 -68 -111 -143 0 -40 12 -68 42 -101 19 -21
19 -22 -11 -51 -57 -57 -53 -153 8 -214 48 -48 91 -59 239 -59 l122 0 0 290 0
290 -127 -1 c-71 0 -143 -5 -162 -11z m179 -283 l0 -185 -60 0 c-102 0 -151
34 -136 94 7 29 45 46 101 46 l45 0 0 49 0 49 -56 4 c-62 5 -84 23 -84 67 0
47 25 61 112 61 l78 0 0 -185z"/>
<path d="M570 572 c0 -264 1 -280 20 -297 37 -34 64 -14 143 105 39 60 75 110
78 110 3 0 40 -52 83 -115 l76 -115 65 0 c36 0 65 4 65 10 0 5 -49 77 -110
160 -60 83 -110 155 -110 160 0 6 36 64 80 130 44 66 80 122 80 125 0 3 -27 5
-59 5 l-59 0 -119 -187 -118 -188 -5 185 -5 185 -52 3 -53 3 0 -279z"/>
</g>
</svg>
